<?xml version="1.0" encoding="UTF-8" standalone="no"?>
<svg
   width="144"
   height="48"
   version="1.1"
   id="svg8"
   sodipodi:docname="stars.svg"
   inkscape:version="1.1.2 (0a00cf5339, 2022-02-04)"
   xmlns:inkscape="http://www.inkscape.org/namespaces/inkscape"
   xmlns:sodipodi="http://sodipodi.sourceforge.net/DTD/sodipodi-0.dtd"
   xmlns="http://www.w3.org/2000/svg"
   xmlns:svg="http://www.w3.org/2000/svg">
  <defs
     id="defs12" />
  <sodipodi:namedview
     id="namedview10"
     pagecolor="#ffffff"
     bordercolor="#666666"
     borderopacity="1.0"
     inkscape:pageshadow="2"
     inkscape:pageopacity="0.0"
     inkscape:pagecheckerboard="0"
     showgrid="false"
     inkscape:zoom="8.9930556"
     inkscape:cx="72"
     inkscape:cy="23.907336"
     inkscape:window-width="2560"
     inkscape:window-height="1411"
     inkscape:window-x="0"
     inkscape:window-y="0"
     inkscape:window-maximized="1"
     inkscape:current-layer="svg8" />
  <path
     fill="#000"
     d="M 6.6666,0 4.66662,4.33329 0,4.66662 3.66663,7.99992 2.66664,12.66654 6.6666,10.33323 10.66656,12.66654 9.66657,7.99992 13.3332,4.66662 8.66658,4.33329 Z"
     id="path2"
     style="fill:#ffcc00;fill-opacity:1;stroke-width:0.33333" />
  <path
     fill="#dddddd"
     d="m 22.667,0 -2,4.33329 -4.667,0.33333 3.667,3.3333 -1,4.66662 4,-2.33331 4,2.33331 -1,-4.66662 3.666,-3.3333 -4.666,-0.33333 z"
     id="path4"
     style="stroke-width:0.33333" />
  <path
     fill="#669966"
     d="M 38.6666,0 36.66662,4.33329 32,4.66662 l 3.66663,3.3333 -0.99999,4.66662 3.99996,-2.33331 3.99996,2.33331 -0.99999,-4.66662 3.66663,-3.3333 -4.66662,-0.33333 z"
     id="path6"
     style="stroke-width:0.33333" />
</svg>
