<?xml version="1.0" encoding="UTF-8" standalone="no"?>
<!-- Generated by IcoMoon.io -->

<svg
   xmlns:dc="http://purl.org/dc/elements/1.1/"
   xmlns:cc="http://creativecommons.org/ns#"
   xmlns:rdf="http://www.w3.org/1999/02/22-rdf-syntax-ns#"
   xmlns:svg="http://www.w3.org/2000/svg"
   xmlns="http://www.w3.org/2000/svg"
   xmlns:sodipodi="http://sodipodi.sourceforge.net/DTD/sodipodi-0.dtd"
   xmlns:inkscape="http://www.inkscape.org/namespaces/inkscape"
   version="1.1"
   width="24"
   height="24"
   viewBox="0 0 24 24"
   id="svg16"
   sodipodi:docname="speedometer.svg"
   inkscape:version="0.92.2 5c3e80d, 2017-08-06">
  <metadata
     id="metadata22">
    <rdf:RDF>
      <cc:Work
         rdf:about="">
        <dc:format>image/svg+xml</dc:format>
        <dc:type
           rdf:resource="http://purl.org/dc/dcmitype/StillImage" />
      </cc:Work>
    </rdf:RDF>
  </metadata>
  <defs
     id="defs20" />
  <sodipodi:namedview
     pagecolor="#ffffff"
     bordercolor="#666666"
     borderopacity="1"
     objecttolerance="10"
     gridtolerance="10"
     guidetolerance="10"
     inkscape:pageopacity="0"
     inkscape:pageshadow="2"
     inkscape:window-width="1366"
     inkscape:window-height="703"
     id="namedview18"
     showgrid="false"
     inkscape:zoom="9.8333333"
     inkscape:cx="12"
     inkscape:cy="12"
     inkscape:window-x="0"
     inkscape:window-y="0"
     inkscape:window-maximized="1"
     inkscape:current-layer="svg16" />
  <title
     id="title2">speedometer</title>
  <path
     d="M19.955 6.67c-2.036-2.036-4.848-3.295-7.955-3.295-6.213 0-11.25 5.037-11.25 11.25 0 0 0 0 0 0v0 4.125h6.75v-1.5h-5.25v-2.625c0-5.376 4.374-9.75 9.75-9.75s9.75 4.374 9.75 9.75v2.625h-5.25v1.5h6.75v-4.125c0-0.009 0-0.020 0-0.031 0-3.097-1.26-5.9-3.295-7.924l-0-0z"
     id="path4"
     style="fill:#535d6c" />
  <path
     d="M3.75 12.375h1.5v1.5h-1.5v-1.5z"
     id="path6"
     style="fill:#535d6c" />
  <path
     d="M11.25 6h1.5v1.5h-1.5v-1.5z"
     id="path8"
     style="fill:#535d6c" />
  <path
     d="M6.375 7.875h1.5v1.5h-1.5v-1.5z"
     id="path10"
     style="fill:#535d6c" />
  <path
     d="M18.75 12.375h1.5v1.5h-1.5v-1.5z"
     id="path12"
     style="fill:#535d6c" />
  <path
     d="M13.932 15.708l3.244-6.758-1.352-0.649-3.243 6.756c-0.177-0.037-0.379-0.058-0.587-0.058-1.66 0-3.007 1.346-3.007 3.007s1.346 3.007 3.007 3.007c1.66 0 3.007-1.346 3.007-3.007 0-0.92-0.413-1.743-1.063-2.294l-0.004-0.004zM12 19.5c-0.828 0-1.5-0.672-1.5-1.5s0.672-1.5 1.5-1.5c0.828 0 1.5 0.672 1.5 1.5v0c-0.001 0.828-0.672 1.499-1.5 1.5h-0z"
     id="path14"
     style="fill:#535d6c" />
</svg>
