<?xml version="1.0" encoding="UTF-8" standalone="no"?>
<!-- Created with Inkscape (http://www.inkscape.org/) -->

<svg
   xmlns:dc="http://purl.org/dc/elements/1.1/"
   xmlns:cc="http://creativecommons.org/ns#"
   xmlns:rdf="http://www.w3.org/1999/02/22-rdf-syntax-ns#"
   xmlns:svg="http://www.w3.org/2000/svg"
   xmlns="http://www.w3.org/2000/svg"
   xmlns:sodipodi="http://sodipodi.sourceforge.net/DTD/sodipodi-0.dtd"
   xmlns:inkscape="http://www.inkscape.org/namespaces/inkscape"
   width="529.18964"
   height="529.18964"
   viewBox="0 0 529.18964 529.18965"
   id="svg2"
   version="1.1"
   inkscape:version="0.92.2 5c3e80d, 2017-08-06"
   sodipodi:docname="favicon.svg"
   inkscape:export-filename="/home/dmpop/tokyo-taxi.png"
   inkscape:export-xdpi="90"
   inkscape:export-ydpi="90">
  <defs
     id="defs4" />
  <sodipodi:namedview
     id="base"
     pagecolor="#ffffff"
     bordercolor="#666666"
     borderopacity="1.0"
     inkscape:pageopacity="0.0"
     inkscape:pageshadow="2"
     inkscape:zoom="0.69999999"
     inkscape:cx="55.522115"
     inkscape:cy="261.39376"
     inkscape:document-units="px"
     inkscape:current-layer="g4233"
     showgrid="false"
     inkscape:window-width="1366"
     inkscape:window-height="703"
     inkscape:window-x="0"
     inkscape:window-y="0"
     inkscape:window-maximized="1"
     inkscape:snap-text-baseline="true"
     fit-margin-top="0"
     fit-margin-left="0"
     fit-margin-right="0"
     fit-margin-bottom="0"
     units="px" />
  <metadata
     id="metadata7">
    <rdf:RDF>
      <cc:Work
         rdf:about="">
        <dc:format>image/svg+xml</dc:format>
        <dc:type
           rdf:resource="http://purl.org/dc/dcmitype/StillImage" />
        <dc:title />
      </cc:Work>
    </rdf:RDF>
  </metadata>
  <g
     inkscape:label="Layer 1"
     inkscape:groupmode="layer"
     id="layer1"
     transform="translate(1117.8454,-710.13172)">
    <g
       id="g4233">
      <ellipse
         style="fill:#cccccc;stroke-width:0.7829259"
         id="path12-3"
         cx="-724.98822"
         cy="1187.8928"
         rx="30.353645"
         ry="44.037056" />
      <ellipse
         style="fill:#cccccc;stroke-width:0.7829259"
         id="path12"
         cx="-968.1991"
         cy="1188.1416"
         rx="30.353645"
         ry="44.037056" />
      <path
         inkscape:connector-curvature="0"
         id="path4221"
         d="m -919.43976,840.19427 29.55652,-95.76312 53.20174,101.67442 -5.9113,5.9113 z"
         style="fill:#ffb4a7;fill-opacity:1;fill-rule:evenodd;stroke:none;stroke-width:0.20689563px;stroke-linecap:butt;stroke-linejoin:miter;stroke-opacity:1" />
      <path
         inkscape:connector-curvature="0"
         id="path4219"
         d="m -993.92219,1014.893 10.64035,-55.56622 31.92104,-40.19686 42.56139,-26.00974 35.46782,-4.72905 h 23.64522 l 35.46783,14.18713 33.1033,22.46296 18.91617,27.192 14.18713,30.73878 4.72904,27.192 2.36453,9.4581 -258.91512,8.2758 z"
         style="fill:#daebff;fill-opacity:1;fill-rule:evenodd;stroke:none;stroke-width:1px;stroke-linecap:butt;stroke-linejoin:miter;stroke-opacity:1" />
      <path
         inkscape:connector-curvature="0"
         id="path3409"
         d="m -1003.3803,1020.8043 316.84592,-2.3645 63.84208,35.4678 26.00974,61.4776 v 59.1131 l -76.84695,8.2758 -31.92104,-59.1131 -26.00974,-11.8226 -24.82748,7.0936 -22.46295,27.192 -1.18226,24.8275 v 13.0048 l -137.14226,-4.729 -21.28069,-55.5663 -27.192,-13.0048 h -22.46295 l -24.82752,17.7339 -11.8226,43.7436 v 10.6404 l -79.2114,4.729 c 0,0 -5.9113,-13.0048 -8.2759,-18.9162 -2.3645,-5.9113 13.0049,-83.9405 13.0049,-83.9405 l 41.3791,-47.2904 29.5565,-15.3694 z"
         style="fill:#ffc710;fill-opacity:1;fill-rule:evenodd;stroke:none;stroke-width:1px;stroke-linecap:butt;stroke-linejoin:miter;stroke-opacity:1" />
      <path
         inkscape:connector-curvature="0"
         id="path3399"
         d="m -969.17509,1239.0101 c -3.38742,-0.691 -7.28597,-2.6677 -10.52192,-5.3351 -5.72989,-4.7231 -6.04976,-5.0428 -11.46457,-11.4562 -2.28094,-2.7016 -3.84093,-5.0893 -5.32468,-8.1498 -2.16535,-4.4665 -3.33328,-8.1333 -3.58134,-11.2442 -0.1136,-1.4238 -0.3311,-3.2869 -0.4834,-4.1404 -0.1522,-0.8534 -0.34,-2.25 -0.4172,-3.1034 -0.077,-0.8535 -0.3124,-3.0532 -0.5227,-4.8884 -0.5179,-4.5215 -0.5306,-15.6838 -0.022,-19.1632 0.3272,-2.2371 0.9722,-4.4431 2.83568,-9.6983 0.22697,-0.64 0.55337,-2.0366 0.72534,-3.1034 0.17197,-1.0668 0.41954,-2.1525 0.55018,-2.4126 0.13061,-0.2601 0.28872,-0.9961 0.35135,-1.6356 0.22808,-2.3291 2.29532,-5.3909 5.90848,-8.7511 1.37513,-1.2788 2.69757,-2.4294 2.93877,-2.5568 0.24118,-0.1275 0.67127,-0.4344 0.95575,-0.6821 0.96467,-0.84 5.19079,-2.841 6.00026,-2.841 0.27011,0 0.60623,-0.1152 0.74694,-0.2559 0.14069,-0.1407 1.36663,-0.4878 2.72428,-0.7713 4.5937,-0.9593 9.90184,-0.6565 13.67497,0.78 0.78231,0.2979 1.87166,0.7074 2.4207,0.9102 0.54908,0.2027 1.66992,0.7766 2.49071,1.2752 0.82084,0.4986 1.60843,0.9066 1.75022,0.9066 0.14176,0 0.4128,0.1868 0.60229,0.4151 0.1895,0.2283 0.98929,0.854 1.77734,1.3905 1.93799,1.3192 6.06096,5.5289 8.49002,8.6685 0.59214,0.7653 2.41139,3.5621 3.19635,4.9137 1.02064,1.7575 4.35847,8.5049 4.35847,8.8107 0,0.1102 0.17818,0.3972 0.39593,0.6378 0.2178,0.2407 0.44783,0.7068 0.5112,1.0359 0.0634,0.3291 0.23433,0.7174 0.3799,0.863 0.1456,0.1456 0.26468,0.4172 0.26468,0.6037 0,0.1865 0.21497,0.8323 0.47771,1.4353 0.88936,2.0411 1.71361,4.8356 2.34474,7.9498 0.15855,0.7823 0.35055,1.7133 0.42669,2.0689 0.64085,2.994 -0.0969,21.2569 -1.0339,25.5929 -0.0756,0.3499 -0.31595,1.6704 -0.5341,2.9345 -0.21816,1.2641 -0.49571,2.4908 -0.61678,2.726 -0.1211,0.2351 -0.36724,1.0676 -0.54703,1.8499 -0.1798,0.7824 -0.39522,1.5388 -0.47866,1.681 -0.14718,0.2508 -1.18555,3.0913 -1.51267,4.138 -0.0889,0.2844 -0.24,0.5754 -0.33571,0.6465 -0.0957,0.071 -0.48234,0.7694 -0.85909,1.5517 -1.50664,3.1286 -2.57705,4.5995 -5.49259,7.5476 -1.6622,1.6807 -3.13252,3.0558 -3.2674,3.0558 -0.13487,0 -0.75266,0.3492 -1.37287,0.7759 -0.62023,0.4267 -1.21392,0.7758 -1.31934,0.7758 -0.10541,0 -0.37541,0.1528 -0.59995,0.3395 -0.43121,0.3584 -1.01931,0.6139 -4.87744,2.1188 -3.11283,1.2142 -4.79468,1.6413 -7.52637,1.9112 -2.73313,0.27 -2.66074,0.2719 -4.5876,-0.1212 z m 8.49458,-13.3307 c 3.08548,-1.0743 5.41756,-2.8225 7.05413,-5.2881 0.52582,-0.7922 0.98002,-1.5779 1.00934,-1.746 0.0293,-0.1682 0.24064,-0.6589 0.46961,-1.0906 0.22897,-0.4316 0.49965,-1.2463 0.60151,-1.8103 0.10185,-0.5641 0.276,-1.142 0.38697,-1.2842 0.36515,-0.468 1.05774,-3.5434 1.56498,-6.9493 0.62781,-4.2154 0.68636,-4.8602 0.87174,-9.6023 0.43595,-11.1528 0.34622,-13.0938 -0.78912,-17.0689 -0.36565,-1.2802 -0.79291,-2.7931 -0.94947,-3.3621 -0.15656,-0.569 -0.36103,-1.1508 -0.4544,-1.2931 -0.0933,-0.1422 -0.44059,-0.9569 -0.7716,-1.8103 -1.04737,-2.7005 -5.27156,-11.0699 -6.58234,-13.0417 -2.27931,-3.4285 -6.44325,-7.1635 -9.9541,-8.9286 -3.93671,-1.9792 -9.01829,-2.0322 -12.02498,-0.1254 -0.64887,0.4115 -1.17979,0.9375 -1.17979,1.1689 0,0.2315 -0.80457,2.0218 -1.78795,3.9786 -1.58434,3.1527 -2.47563,5.2592 -2.73923,6.4741 -0.0463,0.2134 -0.20574,0.9116 -0.35429,1.5517 -1.58325,6.8216 -1.72667,8.2979 -1.33748,13.768 0.15445,2.1711 0.32909,4.8785 0.38806,6.0164 0.059,1.1379 0.24353,3.1164 0.41012,4.3965 0.16658,1.2802 0.46103,3.5496 0.65437,5.0431 0.59106,4.566 1.02254,6.7391 1.89035,9.5203 0.8713,2.7925 3.11607,7.864 3.61813,8.1743 0.16082,0.099 0.2924,0.3884 0.2924,0.6423 0,0.6379 3.00299,4.3146 5.84669,7.1582 2.04924,2.0493 4.06926,3.6723 5.78019,4.6442 0.26021,0.1478 0.63096,0.3887 0.82392,0.5353 0.32329,0.2457 1.68735,0.7005 2.93707,0.9793 0.84022,0.1875 2.73863,-0.098 4.32517,-0.6503 z m 237.22548,9.607 c -3.63917,-0.416 -7.89341,-1.5337 -10.04049,-2.6377 -0.25935,-0.1334 -0.95762,-0.4908 -1.55172,-0.7943 -2.11419,-1.0801 -5.04585,-3.5201 -8.68623,-7.2292 -0.7951,-0.8101 -1.56198,-1.6424 -1.70422,-1.8495 -2.10367,-3.0626 -3.85064,-5.7705 -4.53045,-7.0224 -1.51137,-2.7833 -2.97397,-5.6635 -3.54593,-6.9827 -0.30833,-0.7112 -0.81204,-1.875 -1.11931,-2.5862 -0.72837,-1.6858 -1.52107,-3.8092 -3.13773,-8.4052 -0.7255,-2.0624 -1.6691,-4.7391 -2.09686,-5.9482 -0.42775,-1.209 -0.99816,-3.0711 -1.2676,-4.1379 -0.2694,-1.0668 -0.61696,-2.4052 -0.77236,-2.9741 -0.15538,-0.569 -0.28081,-2.8384 -0.27872,-5.0431 0.004,-4.0035 0.35323,-6.4306 1.20582,-8.3752 0.1943,-0.4432 0.61331,-1.6205 0.93111,-2.6162 0.31779,-0.9956 0.71955,-1.9848 0.89283,-2.1982 0.36155,-0.4452 1.43477,-2.7314 1.43477,-3.0563 0,-0.2276 1.5417,-2.6683 1.82673,-2.892 0.32345,-0.2538 0.69431,-1.1799 0.87713,-2.1905 0.16976,-0.9384 0.43855,-1.8861 1.19333,-4.2079 0.63597,-1.9563 3.75686,-5.826 6.19241,-7.6783 2.13361,-1.6226 6.44317,-3.5863 8.66031,-3.9462 0.42673,-0.069 1.93965,-0.419 3.36206,-0.7772 3.91175,-0.9851 5.80681,-1.1717 10.47409,-1.0313 4.27708,0.1286 7.13177,0.5615 11.63788,1.7646 1.98273,0.5293 2.56721,0.7552 5.33343,2.0609 0.8709,0.411 1.70495,0.7474 1.85345,0.7474 0.1485,0 0.30877,0.094 0.3562,0.2092 0.0474,0.115 0.78219,0.726 1.63287,1.3577 2.46389,1.8297 2.72464,2.0574 5.17738,4.5213 1.36934,1.3755 3.25926,3.6922 4.59055,5.6272 1.24461,1.809 2.26292,3.3485 2.26292,3.4213 0,0.073 0.47459,1.1482 1.05468,2.3899 1.21329,2.5973 1.2488,2.6825 2.12792,5.1026 0.89351,2.4597 2.17474,7.8752 2.38623,10.0862 0.0952,0.9956 0.33475,2.6579 0.53224,3.694 0.51343,2.6937 0.6494,10.4585 0.24097,13.7628 -0.81945,6.6295 -1.73457,11.6651 -2.72599,14.9999 -2.01116,6.765 -4.36853,11.0491 -8.90425,16.182 -4.79491,5.4262 -11.87126,8.4706 -20.31513,8.7401 -2.06249,0.066 -4.56464,0.026 -5.56032,-0.087 z m 8.71206,-12.661 c 0.95113,-0.1227 2.10369,-0.4099 2.56127,-0.6381 0.45757,-0.2283 1.02488,-0.4151 1.26069,-0.4151 0.23581,0 0.67856,-0.2327 0.98392,-0.5172 0.30535,-0.2845 0.66162,-0.5172 0.79168,-0.5172 0.3885,0 3.12087,-3.1173 4.24452,-4.8425 0.94192,-1.4462 2.47447,-5.9001 2.91666,-8.4764 0.19531,-1.138 0.48783,-2.7673 0.65006,-3.6207 0.67211,-3.5357 1.21063,-9.9266 1.13322,-13.4482 -0.14555,-6.6226 -1.96964,-16.9799 -3.60505,-20.4701 -0.21002,-0.4482 -0.38188,-0.9299 -0.38188,-1.0704 0,-0.5242 -2.70671,-5.4076 -3.75707,-6.7784 -5.0326,-6.5679 -12.4261,-9.8937 -21.02408,-9.4572 -4.97186,0.2524 -8.7962,1.2501 -10.47697,2.7333 -0.4959,0.4376 -1.06261,1.3714 -1.43572,2.3657 -0.33903,0.9035 -0.95002,2.3429 -1.35776,3.1987 -0.40773,0.8558 -0.74133,1.6361 -0.74133,1.7341 0,0.098 -0.34231,0.9107 -0.7607,1.8061 -0.41837,0.8953 -0.87672,2.0353 -1.01855,2.5331 -0.14183,0.4979 -0.6752,1.9285 -1.18528,3.1793 -1.43252,3.5128 -1.72272,5.1272 -1.57903,8.785 0.0684,1.7407 0.17734,3.4559 0.24212,3.8115 0.46366,2.5446 1.59519,6.3173 2.9605,9.8707 0.56475,1.4698 1.24013,3.3706 1.50087,4.2241 0.26074,0.8534 0.6129,1.7844 0.78256,2.0689 0.16968,0.2845 0.44565,1.0372 0.61329,1.6726 0.16763,0.6355 0.51742,1.6247 0.7773,2.1983 1.33161,2.9391 1.80483,4.0519 1.80483,4.2444 0,0.4036 2.25514,4.5931 3.44259,6.3956 2.53005,3.8403 6.94365,7.6646 10.13494,8.7815 2.10695,0.7375 7.33492,1.0597 10.5224,0.6486 z m -396.77073,-32.1118 c -1.1518,-0.5193 -2.8748,-2.3801 -3.5443,-3.8277 -0.1714,-0.3706 -0.3228,-1.7794 -0.3365,-3.1307 -0.027,-2.6785 -0.3556,-6.9186 -0.7415,-9.569 -0.1346,-0.9245 -0.5408,-3.6012 -0.9027,-5.9482 -0.8066,-5.2301 -0.9743,-8.3149 -0.654,-12.0258 0.1351,-1.5647 0.4141,-5.4633 0.6201,-8.6638 0.4917,-7.6403 1.0888,-14.6964 1.3974,-16.5144 0.2544,-1.4987 0.6746,-5.9709 0.927,-9.8648 0.4457,-6.8774 2.2878,-15.6156 5.3157,-25.2154 0.4486,-1.4224 0.9264,-3.0471 1.0618,-3.6104 0.1354,-0.5634 0.3364,-1.1453 0.4467,-1.2931 0.1103,-0.1479 0.4149,-0.8507 0.6769,-1.5619 0.262,-0.7113 0.6827,-1.6423 0.9349,-2.069 0.2522,-0.4267 0.7524,-1.3927 1.1115,-2.1466 0.3592,-0.7539 0.8896,-1.7029 1.1786,-2.1089 0.2891,-0.406 0.5256,-0.867 0.5256,-1.0244 0,-0.1574 0.451,-0.9541 1.0023,-1.7704 0.5512,-0.8163 1.7005,-2.8225 2.5541,-4.4583 2.3999,-4.5992 2.7486,-5.2289 3.7312,-6.7383 0.5041,-0.7745 1.1323,-1.7864 1.3961,-2.2487 0.2637,-0.4623 0.5708,-0.8405 0.6824,-0.8405 0.1116,0 0.2029,-0.1161 0.2029,-0.2579 0,-0.388 3.5248,-5.0692 5.2583,-6.9835 5.7002,-6.2946 5.5472,-6.1432 15.5103,-15.3454 1.5147,-1.3991 3.3677,-3.0256 4.1177,-3.6144 0.7499,-0.5888 1.4466,-1.1897 1.5481,-1.3354 0.1015,-0.1458 0.2762,-0.265 0.3882,-0.265 0.112,0 0.9018,-0.5281 1.7551,-1.1736 1.724,-1.3041 9.3756,-6.3389 11.1866,-7.3609 0.2521,-0.1422 0.8826,-0.5235 1.4012,-0.8472 2.4468,-1.5274 11.1863,-5.9442 12.6663,-6.4013 0.3341,-0.1032 0.9567,-0.3698 1.3834,-0.5925 0.8381,-0.4372 6.4283,-2.443 8.5345,-3.0621 0.7112,-0.2091 1.5258,-0.4827 1.8103,-0.608 1.251,-0.5511 7.8023,-1.6054 12.4138,-1.9977 2.5904,-0.2204 8.928,-0.2615 12.2485,-0.08 1.8374,0.1008 2.2114,0.052 2.4888,-0.328 0.3777,-0.5164 0.4611,-1.0944 1.1649,-8.0663 0.2871,-2.8448 0.63489,-5.8125 0.77285,-6.5948 0.13794,-0.7823 0.30198,-1.82976 0.36453,-2.3276 0.0625,-0.49784 0.35658,-2.30171 0.6534,-4.0086 0.29679,-1.70689 0.66645,-3.8599 0.82145,-4.78447 0.64428,-3.84303 2.84306,-14.50335 3.33591,-16.17334 1.17001,-3.96451 2.14244,-6.98658 2.32703,-7.23172 0.10709,-0.14225 0.34128,-0.72414 0.52039,-1.2931 0.17915,-0.56897 0.47327,-1.32543 0.65364,-1.68103 0.18036,-0.3556 0.67682,-1.40301 1.10323,-2.32758 1.57249,-3.40951 2.995,-6.33974 3.13876,-6.46548 0.0813,-0.0711 0.71519,-1.23491 1.40867,-2.5862 2.07042,-4.03452 3.03772,-5.79561 3.42031,-6.22722 0.19906,-0.22456 0.36192,-0.58642 0.36192,-0.80413 0,-0.2177 0.40618,-0.90682 0.90265,-1.53136 0.49649,-0.62454 0.9038,-1.22677 0.90517,-1.33828 0.004,-0.2872 2.59112,-4.11456 3.09751,-4.58171 0.23131,-0.21336 0.74108,-0.86823 1.13282,-1.4553 2.12974,-3.19152 13.20441,-14.50151 19.55207,-19.96752 1.03107,-0.88784 7.46978,-5.60439 10.48721,-7.68216 3.4191,-2.35437 8.40085,-5.72719 9.15255,-6.19658 0.22779,-0.14225 0.75738,-0.49138 1.17688,-0.77586 1.6309,-1.10596 11.993,-6.46205 15.27391,-7.89497 0.7112,-0.31062 1.64223,-0.72046 2.06895,-0.91076 1.92951,-0.8605 5.9035,-2.44422 6.13318,-2.44422 0.1398,0 0.62085,-0.16858 1.06909,-0.37463 0.44822,-0.20604 1.57139,-0.55981 2.49597,-0.78614 0.92455,-0.22633 1.97196,-0.51264 2.32757,-0.63623 0.35559,-0.1236 1.51938,-0.48304 2.5862,-0.79876 1.06679,-0.31572 2.46334,-0.74078 3.10343,-0.94458 3.84249,-1.22342 12.09156,-2.99398 16.03441,-3.44157 1.35128,-0.1534 3.32972,-0.39073 4.39654,-0.5274 6.83268,-0.87538 16.63184,-0.92375 21.85335,-0.10788 1.42241,0.22226 4.27368,0.62388 6.33618,0.89249 6.724,0.87571 13.02368,2.38515 16.66579,3.99323 0.43508,0.19209 1.4311,0.54127 2.21343,0.77598 0.78232,0.2347 1.77154,0.58324 2.19826,0.77453 1.86537,0.83621 2.75409,1.18106 3.04755,1.18255 0.17299,8.3e-4 0.6233,0.16271 1.0007,0.35962 0.37743,0.19692 1.13389,0.49526 1.68103,0.66298 0.54716,0.16772 1.22759,0.40705 1.51207,0.53186 0.28448,0.1248 1.33189,0.58837 2.32758,1.03014 0.99568,0.44178 2.04309,0.90005 2.32757,1.01839 0.99902,0.41555 4.14477,1.86323 4.78446,2.20181 0.35561,0.18822 1.92672,1.01816 3.49137,1.84432 7.52321,3.97238 10.19325,5.45693 10.86202,6.03926 0.28448,0.24772 0.89547,0.59972 1.35775,0.78224 0.46228,0.18252 0.84051,0.43411 0.84051,0.5591 0,0.12498 0.21474,0.22724 0.47716,0.22724 0.26244,0 0.6878,0.23276 0.94525,0.51724 0.25746,0.28448 0.62462,0.51724 0.81595,0.51724 0.1913,0 0.34784,0.0979 0.34784,0.21752 0,0.11963 0.5528,0.52581 1.22844,0.90261 0.67565,0.3768 1.86853,1.15109 2.65085,1.72065 0.78233,0.56956 2.25506,1.61418 3.27276,2.32139 4.05818,2.82007 12.42845,10.60349 15.86377,14.75153 0.76572,0.92457 1.51567,1.79741 1.66657,1.93965 0.15093,0.14224 0.61738,0.72413 1.03657,1.2931 0.41923,0.56896 0.83185,1.09267 0.91699,1.16379 0.23817,0.19895 5.69149,7.51421 5.69149,7.63476 0,0.0584 0.87918,1.3412 1.95375,2.85073 1.07456,1.50951 2.06363,2.9973 2.19795,3.30622 0.1343,0.30893 0.71671,1.20176 1.29418,1.98408 0.5775,0.78232 1.21984,1.77154 1.42743,2.19827 0.20759,0.42672 0.83635,1.47413 1.39727,2.32757 0.56092,0.85345 1.46073,2.42435 1.99959,3.4909 0.53889,1.06655 1.12526,2.09319 1.30306,2.28139 0.1778,0.18822 0.32327,0.4471 0.32327,0.5753 0,0.12819 0.28386,0.84723 0.63083,1.5979 0.34696,0.75065 0.81012,1.77214 1.02928,2.26998 0.21915,0.49785 0.50309,1.07974 0.63095,1.2931 0.63209,1.05463 1.80532,5.04169 3.80504,12.93098 0.48673,1.92025 0.96142,3.66593 1.05486,3.87929 0.0935,0.21336 0.21579,0.67888 0.27186,1.03448 0.15781,1.00096 1.81802,7.18823 2.3941,8.92238 0.28352,0.85344 0.68596,2.48274 0.89435,3.62067 0.20837,1.13793 0.56369,2.99999 0.78957,4.13791 0.41677,2.09942 0.74025,5.09841 1.06701,9.89211 0.1276,1.872 0.29517,2.7458 0.57034,2.9742 0.29586,0.2455 2.79154,0.3285 10.37134,0.3448 10.35585,0.022 10.77781,0.049 23.92381,1.525 5.77125,0.6479 6.87762,0.8055 11.79054,1.68 1.49353,0.2658 3.99567,0.6764 5.56032,0.9123 5.02208,0.7572 16.57154,3.6419 18.34431,4.5818 0.27475,0.1456 0.79845,0.3585 1.16379,0.473 1.19434,0.3744 3.99896,1.4536 5.31939,2.0471 0.7112,0.3196 1.70041,0.7566 2.19826,0.9711 1.78201,0.7679 14.0004,6.8086 14.30311,7.0713 0.16988,0.1475 1.43834,1.0006 2.81877,1.8958 1.38047,0.8952 2.96229,2.0242 3.51518,2.5088 0.5529,0.4846 1.80768,1.5794 2.78833,2.4329 1.8604,1.619 8.81975,8.3139 12.39054,11.9196 1.1395,1.1507 3.07832,3.3619 4.3085,4.9138 1.23018,1.5519 2.89815,3.6363 3.70656,4.632 1.62407,2.0002 3.1331,4.2326 4.72028,6.9827 0.57463,0.9957 1.5506,2.6832 2.16887,3.75 3.05245,5.2671 7.72788,14.8568 7.72788,15.8505 0,0.1536 0.22903,0.7524 0.50896,1.3307 0.27993,0.5783 0.73717,1.6916 1.01609,2.4739 0.27891,0.7823 0.81575,2.237 1.19296,3.2327 1.38647,3.6597 2.27376,6.6344 2.81566,9.4396 0.92104,4.7679 1.173,6.144 1.30231,7.1121 0.076,0.5689 0.54213,3.5366 1.03586,6.5948 0.49372,3.0582 0.953,6.0258 1.02064,6.5948 0.47518,3.9982 0.71639,6.3295 1.06146,10.2591 0.21647,2.4652 0.4375,4.7149 0.49117,4.9994 0.71859,3.8102 0.8209,16.4871 0.17633,21.8534 -0.1452,1.209 -0.38079,3.4202 -0.52346,4.9137 -0.37521,3.9272 -0.99174,8.9772 -1.27963,10.4818 -0.13688,0.7154 -0.32458,2.2865 -0.4171,3.4914 -0.10113,1.3171 -0.36969,2.6176 -0.67349,3.2615 -0.64165,1.36 -4.10438,4.9028 -5.75466,5.8877 -1.37714,0.8219 -3.15332,1.0477 -4.1549,0.5281 -0.32,-0.1661 -1.03652,-0.3952 -1.59225,-0.5091 -0.55574,-0.114 -1.12679,-0.2356 -1.26903,-0.2703 -4.88162,-1.19 -9.65365,-1.7883 -16.68096,-2.0912 -4.6277,-0.1995 -4.13057,-0.1997 -8.14652,0 -1.70689,0.086 -5.78015,0.2224 -9.05168,0.3034 -3.27154,0.081 -6.47197,0.2512 -7.11204,0.3781 -0.64009,0.127 -2.79309,0.3032 -4.78446,0.3917 -1.99137,0.089 -4.72628,0.3227 -6.07756,0.5205 -1.3513,0.1978 -2.68964,0.3238 -2.97413,0.2801 -0.28448,-0.044 -0.83271,0.01 -1.21828,0.1197 -0.38557,0.1097 -1.45924,0.2726 -2.3859,0.3621 -0.92664,0.09 -2.29867,0.3289 -3.04894,0.5318 -0.75024,0.203 -1.65504,0.4404 -2.01063,0.5277 -0.35561,0.087 -0.82113,0.2241 -1.03448,0.3039 -0.9392,0.3515 -1.51791,0.4383 -2.97412,0.4461 -2.10776,0.011 -3.65244,-0.7854 -4.66023,-2.4037 -1.69367,-2.7196 -2.21085,-4.4663 -2.16043,-7.2966 0.0704,-3.9529 -0.66438,-7.3362 -3.31122,-15.2472 -1.22679,-3.6666 -3.89137,-9.1866 -6.29047,-13.0316 -2.9237,-4.6856 -7.51965,-10.5126 -11.1335,-14.1157 -4.32383,-4.3108 -6.51594,-6.1116 -11.88364,-9.7622 -3.13481,-2.132 -7.68049,-4.1394 -11.8965,-5.2535 -0.64009,-0.1691 -1.39655,-0.4042 -1.68103,-0.5223 -0.69106,-0.2869 -3.52871,-0.8754 -6.85342,-1.4214 -5.151,-0.846 -9.96686,-0.1676 -16.34535,2.3023 -7.14095,2.7651 -10.16804,5.4226 -15.36128,13.4856 -0.36646,0.569 -0.88435,1.3438 -1.15085,1.7218 -0.76952,1.0914 -2.99296,5.4224 -3.34434,6.5144 -0.1761,0.5471 -0.48127,1.3036 -0.67818,1.681 -0.19691,0.3774 -0.35876,0.8666 -0.35961,1.0871 0,0.2204 -0.1132,0.5124 -0.24959,0.6488 -0.32387,0.3239 -1.13064,3.4768 -0.93874,3.6687 0.0813,0.081 0.045,0.2749 -0.0806,0.4302 -0.31911,0.3947 -0.7555,2.7668 -0.93209,5.0669 -0.0819,1.0668 -0.20992,2.6379 -0.28448,3.4913 -0.40295,4.6125 -0.20027,13.398 0.41827,18.1307 l 0.34158,2.6135 -0.92725,1.6537 c -1.96124,3.4979 -6.57825,6.4102 -8.96197,5.6529 -0.36913,-0.1172 -4.51167,-0.2759 -9.20562,-0.3525 -4.69394,-0.077 -8.88358,-0.192 -9.3103,-0.2563 -0.42672,-0.064 -2.87068,-0.1896 -5.43101,-0.2782 -2.56033,-0.089 -5.70256,-0.2161 -6.98273,-0.2831 -1.28017,-0.067 -5.87713,-0.1793 -10.21547,-0.2495 -4.33834,-0.07 -10.15728,-0.2441 -12.93098,-0.3865 -2.7737,-0.1424 -7.07971,-0.3215 -9.56891,-0.3978 -2.48923,-0.076 -6.75616,-0.2496 -9.48209,-0.3851 -2.72596,-0.1355 -7.55567,-0.2473 -10.73271,-0.2485 -3.17707,0 -6.82388,-0.1231 -8.10404,-0.2711 -1.28017,-0.1479 -5.52801,-0.3065 -9.43962,-0.3525 -3.91163,-0.046 -9.74855,-0.175 -12.97091,-0.2867 -4.17118,-0.1446 -6.18262,-0.1178 -6.98272,0.093 -1.08759,0.2866 -1.52118,0.3446 -5.13246,0.6872 -3.95833,0.3756 -6.42736,0.7259 -7.75859,1.1009 -3.19931,0.9012 -6.31278,0.7241 -7.44694,-0.4237 -0.38476,-0.3894 -0.86257,-0.9887 -1.06179,-1.3318 -1.00613,-1.7331 -1.35157,-5.5853 -0.67154,-7.489 0.49781,-1.3935 0.61589,-4.1948 0.35437,-8.4051 -0.10603,-1.7069 -0.26094,-4.3836 -0.34423,-5.9483 -0.21884,-4.1093 -0.84285,-8.5561 -1.45167,-10.3448 -0.55071,-1.6179 -1.34376,-3.0425 -4.05925,-7.2915 -2.22115,-3.4755 -2.19375,-3.435 -2.77577,-4.1101 -0.28448,-0.33 -0.98276,-1.1965 -1.55172,-1.9256 -1.1761,-1.5072 -7.99018,-8.4677 -11.174,-11.4142 -1.88295,-1.7425 -5.43976,-4.3532 -5.93085,-4.3532 -0.10005,0 -0.36568,-0.1592 -0.59025,-0.3538 -1.21545,-1.0531 -6.85607,-3.4384 -9.45995,-4.0004 -3.53361,-0.7626 -6.13268,-1.2573 -7.62928,-1.4519 -0.35561,-0.046 -1.4612,-0.2258 -2.45688,-0.399 -2.33279,-0.4058 -10.47664,-0.4322 -12.09295,-0.039 -0.67702,0.1646 -2.11114,0.7059 -3.18698,1.2028 -1.07584,0.497 -2.01686,0.9035 -2.09122,0.9035 -0.0743,0 -0.44406,0.2125 -0.8216,0.4721 -0.37756,0.2597 -1.09382,0.6287 -1.59165,0.8202 -1.92992,0.7421 -5.62833,3.9037 -8.58075,7.3353 -1.41227,1.6415 -3.27767,4.3558 -4.46827,6.5017 -0.3945,0.7112 -0.9392,1.6054 -1.2103,1.9872 -0.2711,0.3818 -0.653,1.1382 -0.8486,1.681 -0.1957,0.5428 -0.5417,1.3361 -0.7689,1.7628 -0.2271,0.4267 -0.4138,0.9653 -0.4146,1.1968 0,0.2315 -0.1762,0.5658 -0.3895,0.7428 -0.2134,0.1771 -0.3887,0.4532 -0.3896,0.6136 0,0.1604 -0.1517,0.5825 -0.3351,0.9381 -0.6222,1.2058 -1.4425,3.482 -2.237,6.2069 -0.4355,1.4935 -0.9087,3.0765 -1.0516,3.5178 -1.4201,4.3853 -4.0396,19.0577 -4.4227,24.7734 l -0.3102,4.6274 -1.0355,1.7886 c -1.1477,1.9822 -2.5413,3.3375 -4.5308,4.4058 -1.767,0.9489 -3.5908,1.136 -6.001,0.6156 -3.8928,-0.8406 -8.623,-0.9648 -21.8415,-0.5739 -8.0402,0.2378 -16.1105,0.643 -19.1379,0.961 -5.3799,0.565 -10.5644,0.8792 -18.6206,1.1286 -7.2551,0.2245 -15.3773,0.6427 -17.7154,0.9121 -3.236,0.3729 -4.6393,0.3058 -5.9483,-0.2843 z m 19.9137,-12.0278 c 4.9073,-0.056 9.7953,-0.1464 10.8621,-0.2011 2.7225,-0.1397 6.7081,-0.4479 7.6292,-0.5898 0.9943,-0.1532 1.5662,-0.2213 5.9483,-0.7078 1.9914,-0.2211 4.028,-0.4629 4.5258,-0.5373 0.4979,-0.074 3.8729,-0.2513 7.5,-0.3933 3.6271,-0.1419 7.4676,-0.3155 8.5344,-0.3859 1.0668,-0.07 2.9779,-0.1898 4.2468,-0.2657 1.2689,-0.076 2.5491,-0.1873 2.8448,-0.2477 0.2958,-0.06 2.0506,-0.1787 3.8998,-0.2628 3.253,-0.148 5.1482,-0.4505 5.4027,-0.8623 0.2752,-0.4453 1.2657,-4.4169 1.4626,-5.8648 0.1161,-0.8535 0.384,-2.3664 0.5953,-3.3621 0.2112,-0.9957 0.5205,-2.5667 0.6872,-3.4913 0.5416,-3.0028 1.082,-5.5221 1.5928,-7.4251 0.2753,-1.0256 0.544,-2.073 0.5971,-2.3276 0.053,-0.2545 0.4054,-1.5684 0.7829,-2.9197 0.3775,-1.3512 0.7472,-2.6896 0.8215,-2.9741 0.074,-0.2845 0.3174,-0.9245 0.5403,-1.4224 0.2229,-0.4978 0.4049,-1.0797 0.4045,-1.2931 0,-0.2133 0.2712,-0.8758 0.6036,-1.4722 0.3323,-0.5963 0.6042,-1.2039 0.6042,-1.3501 0,-0.1462 0.2997,-0.9384 0.6659,-1.7605 0.8888,-1.9953 1.2639,-2.8705 1.6918,-3.9471 1.1556,-2.9079 4.5554,-9.0504 6.028,-10.8908 0.2952,-0.369 0.8859,-1.1068 1.3126,-1.6397 0.4267,-0.5329 1.5016,-1.744 2.3886,-2.6913 0.887,-0.9473 1.6144,-1.7992 1.6164,-1.8931 0,-0.1685 3.1659,-2.9077 5.2615,-4.5574 1.7384,-1.3684 5.66654,-3.9356 6.02218,-3.9356 0.17999,0 0.39535,-0.1102 0.47857,-0.2448 0.26232,-0.4245 6.78083,-3.584 8.6064,-4.1715 1.52567,-0.4911 2.51651,-0.5786 7.82446,-0.6911 3.74835,-0.08 7.36604,-0.01 9.43961,0.1808 8.68389,0.7996 17.03089,2.5448 20.81888,4.3528 1.06679,0.5092 2.01723,0.9339 2.11205,0.9438 0.0948,0.01 0.2597,0.1052 0.36637,0.2119 0.10668,0.1067 0.40601,0.194 0.66515,0.194 0.25916,0 0.70866,0.2037 0.99893,0.4526 0.29028,0.2489 1.15192,0.8017 1.91474,1.2284 2.58431,1.4456 4.40837,2.778 7.39097,5.3984 3.08062,2.7066 10.0132,9.5631 11.69106,11.5628 0.52708,0.6282 1.20945,1.4331 1.51638,1.7887 0.30693,0.3556 0.86488,1.0523 1.23992,1.5481 0.37502,0.4959 0.96705,1.2279 1.31561,1.6266 0.34856,0.3988 0.87227,1.1219 1.16379,1.6071 0.29153,0.4851 1.10453,1.7316 1.80665,2.7699 2.84883,4.213 4.83884,9.1131 5.703,14.0431 0.3396,1.9374 0.83672,7.3131 0.88692,9.5912 0.0275,1.2495 0.11826,2.3821 0.2016,2.5169 0.0833,0.1349 0.24449,1.6791 0.35815,3.4317 0.11369,1.7526 0.34264,3.4406 0.50884,3.7511 0.285,0.5325 0.41437,0.5539 2.27834,0.3755 1.08688,-0.104 2.38348,-0.2214 2.88133,-0.2609 0.87937,-0.07 7.71762,0.2258 11.63788,0.5029 3.2896,0.2325 19.43094,0.6035 32.88393,0.7558 4.50215,0.051 8.28588,0.1546 8.40824,0.2302 0.12238,0.076 2.66504,0.2071 5.65038,0.2922 2.98534,0.085 6.0098,0.2116 6.72101,0.2812 0.7112,0.07 2.51506,0.1894 4.00859,0.2662 1.49353,0.077 4.05386,0.2473 5.68963,0.3791 1.63577,0.1318 7.45471,0.2519 12.93098,0.267 5.47627,0.015 11.93529,0.1173 14.35338,0.2272 7.43459,0.3376 15.52863,-0.1181 16.18697,-0.9113 0.16588,-0.1999 0.26222,-2.0025 0.24978,-4.6745 -0.0111,-2.3921 0.16218,-6.153 0.38514,-8.3578 0.22293,-2.2047 0.46605,-4.7069 0.54025,-5.5603 0.22541,-2.5922 0.81383,-5.8293 1.48086,-8.1465 1.24334,-4.3194 1.55619,-5.3035 1.72662,-5.431 0.095,-0.071 0.34751,-0.5367 0.56102,-1.0345 1.20954,-2.8202 1.63613,-3.7634 1.75448,-3.8793 0.0726,-0.071 0.47679,-0.8276 0.89813,-1.681 0.42137,-0.8535 0.8287,-1.6099 0.90517,-1.6811 0.0765,-0.071 0.28622,-0.362 0.46606,-0.6465 0.81072,-1.2824 1.33944,-2.0898 1.53266,-2.3407 0.2318,-0.3011 0.79804,-1.2552 1.225,-2.0643 1.15696,-2.1924 6.68488,-8.5547 8.97327,-10.3277 4.4602,-3.4558 4.71779,-3.6241 7.98509,-5.2181 4.21764,-2.0575 4.8076,-2.2977 9.43961,-3.8421 4.58943,-1.5302 7.54357,-1.9618 12.28443,-1.7946 6.74288,0.2377 16.29621,2.0599 20.81887,3.9709 0.28448,0.1202 1.04095,0.4231 1.68103,0.6731 1.2925,0.5048 8.07214,3.7794 8.27582,3.9973 0.11007,0.1177 3.02707,2.1054 6.42179,4.3759 1.47141,0.9842 8.5309,7.2742 10.51779,9.3714 1.97255,2.0821 6.03486,6.965 6.61831,7.9553 0.20044,0.3402 0.64117,0.922 0.97942,1.2931 0.52254,0.5732 3.48567,4.8458 4.29877,6.1984 2.04614,3.404 3.14608,5.5253 4.51116,8.7003 0.24464,0.5689 0.6528,1.5 0.90706,2.0689 0.82476,1.8457 2.18496,5.7589 2.04897,5.8949 -0.0728,0.073 -0.0184,0.3473 0.12115,0.6101 0.41636,0.7846 1.51972,4.7187 1.9836,7.0726 0.23826,1.209 0.47888,2.431 0.53472,2.7155 0.0558,0.2844 0.22957,1.1367 0.38606,1.8939 l 0.28455,1.3767 2.11133,-0.1446 c 1.16122,-0.08 3.33333,-0.2585 4.82685,-0.3977 1.49354,-0.1392 3.93749,-0.3152 5.43101,-0.391 1.49354,-0.076 3.53016,-0.1946 4.52584,-0.2639 0.99569,-0.069 3.84698,-0.1914 6.33618,-0.2715 2.48923,-0.08 4.87498,-0.1961 5.3017,-0.2579 0.85589,-0.1241 5.06686,-0.2766 14.4827,-0.5246 4.70373,-0.1239 7.3217,-0.064 10.8103,0.249 6.62219,0.5935 6.95423,0.5785 7.49593,-0.3385 0.24403,-0.4131 0.44369,-1.03 0.44369,-1.3707 0,-0.3408 0.13965,-0.7592 0.31034,-0.9299 0.24136,-0.2414 0.24029,-0.3104 -0.005,-0.3104 -0.19351,0 -0.26447,-0.2247 -0.18372,-0.5819 0.22318,-0.9872 0.35992,-1.9635 0.50882,-3.6329 0.0787,-0.8823 0.31547,-3.4662 0.52618,-5.742 0.21066,-2.2759 0.3919,-6.5237 0.40272,-9.4396 0.0188,-5.097 -0.0285,-6.2249 -0.42937,-10.2155 -0.10002,-0.9957 -0.21753,-2.3922 -0.26115,-3.1034 -0.14466,-2.3584 -0.36014,-4.3653 -0.77755,-7.2414 -0.22709,-1.5646 -0.45006,-3.2521 -0.49554,-3.75 -0.0454,-0.4978 -0.204,-1.6809 -0.35234,-2.6291 -0.14832,-0.9482 -0.33935,-2.3448 -0.42449,-3.1034 -0.0852,-0.7588 -0.24966,-1.7868 -0.36554,-2.2847 -0.1159,-0.4978 -0.21852,-1.3258 -0.22804,-1.8398 -0.01,-0.5141 -0.14115,-1.4452 -0.29245,-2.069 -0.1513,-0.6238 -0.32727,-1.3583 -0.39099,-1.6321 -0.0637,-0.2738 -0.2376,-1.4376 -0.38638,-2.5862 -0.32445,-2.505 -1.06584,-6.2075 -1.47982,-7.39 -0.0747,-0.2134 -0.65265,-1.8427 -1.28434,-3.6207 -0.63172,-1.778 -1.43925,-4.1056 -1.79458,-5.1724 -0.63494,-1.9063 -0.79659,-2.3076 -1.88223,-4.6721 -0.29818,-0.6495 -0.54215,-1.3079 -0.54215,-1.4632 0,-0.3249 -1.96667,-4.6334 -3.16101,-6.925 -0.87631,-1.6814 -0.9241,-1.7673 -3.27123,-5.882 -0.87173,-1.5281 -1.58496,-2.8322 -1.58496,-2.8979 0,-0.066 -0.46552,-0.7841 -1.03448,-1.5963 -0.56897,-0.8122 -1.03448,-1.632 -1.03448,-1.8218 0,-0.1898 -0.0977,-0.345 -0.2171,-0.345 -0.11942,0 -0.35946,-0.3125 -0.53344,-0.6943 -0.31365,-0.6884 -0.85611,-1.4159 -2.62262,-3.5174 -0.50396,-0.5995 -1.08586,-1.3384 -1.2931,-1.6419 -1.34054,-1.9631 -4.17249,-5.0461 -8.90912,-9.699 -7.44673,-7.3151 -8.32783,-8.1441 -9.959,-9.3698 -0.78231,-0.5879 -1.53879,-1.2015 -1.68103,-1.3635 -0.4707,-0.5362 -4.51564,-3.1968 -4.86012,-3.1968 -0.18598,0 -0.44867,-0.106 -0.58382,-0.2356 -0.13512,-0.1297 -1.17672,-0.7145 -2.31464,-1.2996 -1.13793,-0.5852 -2.24352,-1.1746 -2.45689,-1.3098 -0.21335,-0.1352 -0.79524,-0.4209 -1.2931,-0.6349 -0.49783,-0.2139 -1.07972,-0.5042 -1.29309,-0.645 -0.52717,-0.348 -5.89026,-2.8578 -6.10665,-2.8578 -0.0951,0 -0.70932,-0.2486 -1.365,-0.5524 -2.51086,-1.1635 -2.0456,-1.0094 -8.43346,-2.7925 -1.56465,-0.4368 -3.89223,-1.0306 -5.1724,-1.3196 -1.28016,-0.289 -2.79309,-0.657 -3.36205,-0.8179 -0.56896,-0.1609 -1.55817,-0.3811 -2.19827,-0.4894 -0.64007,-0.1083 -1.68748,-0.3155 -2.32757,-0.4603 -0.64008,-0.1449 -2.44395,-0.4982 -4.0086,-0.7851 -1.56465,-0.287 -3.83403,-0.704 -5.04308,-0.9266 -1.20905,-0.2227 -2.72197,-0.4601 -3.36205,-0.5277 -0.64009,-0.067 -1.51293,-0.1773 -1.93965,-0.2439 -1.42231,-0.2221 -8.33159,-0.8121 -10.08616,-0.8613 -0.28449,-0.01 -2.84482,-0.1896 -5.68963,-0.4036 -2.84482,-0.2139 -5.63791,-0.3505 -6.20687,-0.3034 -5.4306,0.4491 -7.93453,0.7712 -10.47409,1.3472 -5.63031,1.2772 -7.90722,0.8446 -9.52036,-1.8084 -0.44796,-0.7367 -1.16961,-1.673 -1.60367,-2.0805 -1.66745,-1.5657 -1.82195,-2.2639 -1.93106,-8.7274 -0.0543,-3.2162 -0.21968,-6.533 -0.36753,-7.3706 -0.26457,-1.4992 -0.33225,-1.9255 -0.6728,-4.23852 -0.0942,-0.64008 -0.38919,-1.92025 -0.65547,-2.84481 -0.26625,-0.92457 -0.55396,-2.08836 -0.63936,-2.5862 -0.0854,-0.49784 -0.25818,-1.31249 -0.38397,-1.81034 -2.04491,-8.09254 -3.43183,-13.40629 -3.88139,-14.87062 -0.30566,-0.99569 -0.67546,-2.21766 -0.82176,-2.71551 -0.94994,-3.23243 -2.84958,-8.16718 -3.33012,-8.65082 -0.13427,-0.13513 -0.24413,-0.37707 -0.24413,-0.53764 0,-0.32685 -2.32533,-4.54871 -3.89176,-7.06588 -0.56211,-0.90328 -1.02201,-1.69015 -1.02201,-1.7486 0,-0.0584 -0.46552,-0.78825 -1.03448,-1.62178 -0.56897,-0.83353 -1.03448,-1.6411 -1.03448,-1.79456 0,-0.15349 -0.15879,-0.37213 -0.35289,-0.48587 -0.19409,-0.11374 -0.55947,-0.61414 -0.81196,-1.11199 -0.25246,-0.49784 -0.53433,-0.96335 -0.62638,-1.03447 -0.092,-0.0711 -0.83989,-1.11853 -1.66191,-2.32758 -2.87583,-4.2298 -3.84179,-5.56645 -4.58794,-6.34849 -0.41358,-0.4335 -0.75199,-0.92232 -0.75199,-1.08628 0,-0.16397 -0.14617,-0.39119 -0.3248,-0.50493 -0.17865,-0.11374 -0.66956,-0.67233 -1.09093,-1.2413 -0.42137,-0.56896 -1.13032,-1.4418 -1.57543,-1.93964 -0.44511,-0.49785 -1.73925,-1.95258 -2.8758,-3.23275 -1.94161,-2.18691 -7.64397,-7.7104 -9.65021,-9.34752 -0.49784,-0.40625 -0.94396,-0.82592 -0.99137,-0.9326 -0.0474,-0.10668 -0.22308,-0.19397 -0.39038,-0.19397 -0.1673,0 -0.44953,-0.23276 -0.62718,-0.51724 -0.17767,-0.28448 -0.4966,-0.51724 -0.70877,-0.51724 -0.21215,0 -0.38573,-0.11638 -0.38573,-0.25862 0,-0.14224 -0.14987,-0.25862 -0.33305,-0.25862 -0.18318,0 -0.73598,-0.3444 -1.22845,-0.76534 -0.49246,-0.42095 -1.01891,-0.77008 -1.16989,-0.77586 -0.15098,-0.006 -0.50012,-0.21418 -0.77586,-0.4631 -0.58598,-0.52897 -3.7312,-2.62405 -4.99632,-3.32809 -0.48085,-0.2676 -1.0637,-0.60293 -1.29522,-0.74517 -5.55683,-3.41398 -8.9338,-5.3017 -9.4843,-5.3017 -0.2046,0 -0.3729,-0.0873 -0.37402,-0.19396 -0.003,-0.22211 -1.24608,-0.84051 -1.69049,-0.84051 -0.16296,0 -0.50692,-0.23276 -0.76437,-0.51724 -0.25746,-0.28449 -0.60406,-0.51724 -0.77023,-0.51724 -0.16616,0 -1.57375,-0.63013 -3.128,-1.40028 -1.55423,-0.77016 -3.40778,-1.6305 -4.11898,-1.91187 -0.7112,-0.28137 -2.34051,-0.94584 -3.62067,-1.47661 -2.65517,-1.10084 -9.14947,-3.43625 -10.41676,-3.74594 -0.46633,-0.11396 -0.99002,-0.31992 -1.16379,-0.45768 -0.17379,-0.13777 -0.78147,-0.33426 -1.35043,-0.43666 -0.56896,-0.10239 -1.17426,-0.30167 -1.34513,-0.44284 -0.37668,-0.31121 -4.04223,-1.24876 -4.88232,-1.24876 -0.33091,0 -0.86897,-0.11455 -1.19568,-0.25455 -0.32675,-0.14 -1.93244,-0.42959 -3.5682,-0.64354 -1.63578,-0.21395 -4.13791,-0.5577 -5.56032,-0.76389 -8.91648,-1.29252 -15.35261,-1.19684 -26.76712,0.39794 -1.98848,0.27782 -7.76358,1.62732 -10.99133,2.5684 -0.99569,0.2903 -2.21768,0.63295 -2.71551,0.76144 -0.86338,0.22284 -4.40183,1.28138 -8.01721,2.39837 -0.92457,0.28565 -1.7974,0.59578 -1.93964,0.68916 -0.14224,0.0934 -0.72414,0.31626 -1.2931,0.49527 -3.73786,1.17601 -15.14427,6.8048 -18.59802,9.17766 -0.86362,0.59336 -1.68754,1.13703 -1.83092,1.20815 -0.77068,0.38235 -6.30765,4.17742 -6.58845,4.51578 -0.18169,0.21889 -0.47637,0.39799 -0.6549,0.39799 -0.17853,0 -0.47046,0.17576 -0.64874,0.39059 -0.17831,0.21482 -1.12545,0.92327 -2.1048,1.57433 -0.97934,0.65106 -1.92419,1.32194 -2.09972,1.49084 -0.17553,0.1689 -1.07302,0.88609 -1.99443,1.59376 -0.92143,0.70766 -2.31798,1.79433 -3.10343,2.41484 -1.76813,1.39675 -7.37004,6.8966 -11.21513,11.01077 -1.58696,1.69802 -3.12191,3.32733 -3.41099,3.62068 -0.82822,0.84049 -3.22436,3.9897 -3.22436,4.23774 0,0.12326 -0.23276,0.43474 -0.51724,0.69219 -0.28448,0.25746 -0.51724,0.58456 -0.51724,0.72688 0,0.14232 -0.2705,0.6189 -0.60112,1.05905 -0.50772,0.67593 -1.59131,2.60494 -3.79084,6.74852 -0.22653,0.42672 -0.60093,1.06681 -0.83203,1.42241 -0.48619,0.74813 -2.93347,5.29324 -3.2937,6.1171 -0.13392,0.30621 -0.36703,0.63313 -0.51805,0.72646 -0.15101,0.0933 -0.27457,0.34425 -0.27457,0.55764 0,0.21336 -0.44989,1.34117 -0.99974,2.50625 -1.52165,3.22424 -1.73728,3.75446 -2.49158,6.12696 -0.38441,1.20905 -0.78873,2.37666 -0.89848,2.59468 -0.10976,0.21804 -0.27704,0.79993 -0.37175,1.29309 -0.50127,2.61092 -1.00347,4.8343 -1.19555,5.29322 -0.31434,0.75101 -2.03778,9.5344 -2.71484,13.83615 -0.10236,0.65014 -0.49219,3.67302 -0.78383,6.07756 -0.0862,0.7112 -0.25051,1.75865 -0.365,2.32755 -0.11448,0.569 -0.21348,1.2091 -0.21995,1.4224 -0.006,0.2134 -0.15402,1.6681 -0.32783,3.2328 -0.17379,1.5646 -0.34239,4.5616 -0.37463,6.6599 -0.0552,3.5915 -0.10113,3.9024 -0.78303,5.3017 -0.73937,1.5174 -2.56605,3.4666 -4.32661,4.6169 -0.54016,0.353 -1.05471,0.8405 -1.14343,1.0833 -0.16783,0.4595 -3.49444,3.7714 -4.87272,4.8512 -1.07002,0.8382 -2.87782,1.0242 -5.15022,0.5298 -7.0796,-1.5403 -15.4347,-1.647 -20.9425,-0.2675 -1.4538,0.3641 -2.0409,0.543 -3.3743,1.028 -3.8739,1.4093 -4.8925,1.768 -6.2845,2.2131 -0.8962,0.2865 -2.5255,0.9785 -3.6207,1.5377 -1.0952,0.5592 -2.0689,1.0182 -2.1639,1.0201 -0.151,0 -3.5509,1.913 -4.6118,2.591 -0.2134,0.1364 -0.8535,0.48 -1.4224,0.7636 -2.6137,1.3027 -8.4178,5.0995 -11.4815,7.5107 -4.9376,3.886 -18.1639,16.5974 -21.1239,20.3016 -0.6819,0.8534 -1.3348,1.5905 -1.4508,1.6379 -0.116,0.047 -0.2109,0.2007 -0.2109,0.3407 0,0.14 -0.4946,0.8794 -1.0991,1.6432 -0.6046,0.7637 -1.3901,1.8113 -1.7457,2.3279 -0.3556,0.5167 -0.9084,1.2682 -1.2285,1.6701 -0.32,0.4019 -0.5819,0.8314 -0.5819,0.9546 0,0.1232 -0.2618,0.5172 -0.5819,0.8756 -0.5824,0.6521 -0.8682,1.1629 -3.4455,6.1563 -0.7595,1.4714 -1.5013,2.8205 -1.6486,2.9979 -0.1473,0.1774 -0.2077,0.3826 -0.1344,0.4559 0.073,0.073 -0.044,0.2805 -0.2609,0.4605 -0.2168,0.1799 -0.3942,0.5388 -0.3942,0.7974 0,0.2587 -0.1181,0.5434 -0.2625,0.6326 -0.1444,0.089 -0.4313,0.5325 -0.6376,0.9851 -0.2063,0.4525 -0.8021,1.5793 -1.3242,2.5038 -1.3137,2.3268 -1.9136,3.5448 -1.9136,3.8853 0,0.1593 -0.1756,0.4652 -0.3903,0.6799 -0.2147,0.2147 -0.3263,0.4939 -0.248,0.6205 0.078,0.1266 -0.037,0.5769 -0.2563,1.0008 -0.2192,0.4238 -0.3985,1.0091 -0.3985,1.3007 0,0.2915 -0.1092,0.53 -0.2427,0.53 -0.1336,0 -0.3208,0.52 -0.4161,1.1555 -0.095,0.6355 -0.3339,1.2888 -0.5302,1.4517 -0.1964,0.1629 -0.3035,0.3829 -0.238,0.4888 0.065,0.1058 0,0.5873 -0.1536,1.0698 -0.5024,1.6167 -0.7753,2.6764 -1.1255,4.3687 -0.1913,0.9246 -0.5195,2.4957 -0.7292,3.4914 -0.9249,4.3893 -1.6037,9.327 -1.8843,13.7068 -0.091,1.4224 -0.2247,2.6835 -0.2969,2.8024 -0.072,0.1189 -0.1547,0.9846 -0.1835,1.9237 -0.035,1.1313 -0.1657,1.7452 -0.3882,1.8194 -0.2418,0.081 -0.2532,0.1629 -0.041,0.2941 0.2192,0.1355 0.202,0.8412 -0.067,2.7489 -0.1993,1.4116 -0.3669,2.7994 -0.3726,3.0838 -0.024,1.1931 -0.3168,5.0089 -0.4768,6.2069 -0.095,0.7112 -0.1968,2.166 -0.2264,3.2328 -0.03,1.0668 -0.076,1.9396 -0.1026,1.9396 -0.027,0 -0.096,0.6983 -0.1543,1.5517 -0.058,0.8535 -0.2328,2.7737 -0.3884,4.2672 -0.383,3.6755 -0.3304,9.4111 0.102,11.1207 0.09,0.3556 0.2049,0.9957 0.2555,1.4224 0.051,0.4267 0.1568,0.9504 0.2359,1.1638 0.079,0.2134 0.2107,0.9698 0.2924,1.681 0.1336,1.1625 0.2873,2.1278 0.8031,5.0431 0.088,0.4978 0.225,1.0797 0.3043,1.2931 0.079,0.2134 0.1864,0.7371 0.2381,1.1638 0.1541,1.271 0.6036,1.9159 1.2281,1.7622 0.3023,-0.074 4.5646,-0.181 9.4719,-0.2368 z m 317.71415,-148.4883 c -2.84647,-0.7913 -5.51573,-1.3539 -7.11203,-1.499 -0.92457,-0.084 -1.8556,-0.2118 -2.06896,-0.284 -0.21336,-0.072 -1.78447,-0.2364 -3.49136,-0.3651 -1.70689,-0.1286 -3.56895,-0.2876 -4.13792,-0.3532 -5.39126,-0.6219 -8.58154,-0.7782 -21.85335,-1.0705 -3.76938,-0.083 -7.49001,-0.1964 -8.26804,-0.2519 -0.77803,-0.055 -13.11418,-0.1669 -27.41367,-0.2475 -25.80502,-0.1454 -33.66008,-0.248 -40.86967,-0.534 -7.04852,-0.2797 -26.75853,-0.2563 -32.97399,0.039 -5.12923,0.2437 -6.8804,0.4332 -10.08616,1.0917 -6.51587,1.3383 -8.09825,1.5598 -14.22408,1.9909 -0.85344,0.06 -2.54094,0.1884 -3.74998,0.2852 -1.20906,0.097 -2.95679,0.1883 -3.88382,0.2034 l -1.68558,0.027 -0.86748,-1.2718 -0.86747,-1.2719 0.93666,-1.7659 c 0.51517,-0.9712 0.93668,-1.8998 0.93668,-2.0634 0,-0.5023 1.70412,-2.876 2.89811,-4.0369 1.43987,-1.3999 3.13741,-1.9932 6.80012,-2.3766 6.1405,-0.6429 7.56051,-0.8756 11.50857,-1.8866 1.39324,-0.3567 3.14175,-0.5271 6.20687,-0.6048 8.95229,-0.227 29.35965,-0.1623 35.43088,0.1123 12.06864,0.5459 26.87473,0.8265 50.3015,0.9536 29.28162,0.1588 42.47898,0.3058 42.75482,0.4763 0.11729,0.072 1.48502,0.1461 3.03943,0.1637 2.47659,0.028 4.39689,0.1442 10.4555,0.633 0.78232,0.063 2.58619,0.1844 4.0086,0.2695 1.42241,0.085 4.50644,0.3754 6.85342,0.645 2.34697,0.2696 5.08187,0.5528 6.07756,0.6293 1.48008,0.1136 1.90866,0.251 2.34938,0.7533 0.81402,0.9277 1.22854,3.3746 1.08982,6.4337 -0.14721,3.2466 -0.55058,4.1756 -2.11318,4.8668 -1.41157,0.6244 -4.30817,0.774 -5.98118,0.3089 z m -88.18925,-46.17239 c -0.61552,-0.53102 -1.45345,-1.70901 -2.06896,-2.90856 l -1.03448,-2.0161 -0.18138,-7.13335 c -0.16434,-6.46406 -0.6264,-13.11935 -1.2224,-17.60746 -0.12278,-0.92457 -0.29574,-2.90301 -0.38435,-4.39653 -0.0886,-1.49353 -0.21687,-3.41378 -0.28507,-4.26723 -0.0682,-0.85344 -0.18376,-2.93362 -0.25675,-4.62264 -0.073,-1.68899 -0.18497,-3.95838 -0.2488,-5.04308 -0.0638,-1.08468 -0.19021,-3.48508 -0.28094,-5.33421 -0.24869,-5.07011 -0.43138,-7.10229 -0.93554,-10.40682 -0.24755,-1.62265 -0.22448,-2.03656 0.17297,-3.10343 0.9014,-2.41947 2.46085,-3.50626 5.00826,-3.49032 2.46176,0.0154 4.42814,0.30455 5.11013,0.75139 0.32373,0.21213 0.6625,0.36561 0.75281,0.34105 0.27021,-0.0735 1.67236,1.2745 1.68659,1.62139 0.007,0.17671 0.0597,1.89239 0.11651,3.81264 0.0967,3.26852 0.44385,11.6497 0.77654,18.74992 0.08,1.70689 0.2666,4.4418 0.41476,6.07756 0.14816,1.63577 0.32183,3.96335 0.38593,5.17239 0.0641,1.20905 0.4153,4.93317 0.78047,8.27583 0.54577,4.99614 0.67115,7.4581 0.70464,13.83615 0.0509,9.69854 0.28101,9.09973 -4.35579,11.33464 -2.92497,1.40982 -3.39299,1.44569 -4.65515,0.35677 z m 21.59473,-142.08777 c -0.35561,-0.0998 -1.76072,-0.14236 -3.12245,-0.0946 -2.96924,0.10422 -8.74395,-0.45453 -14.07575,-1.36194 -0.28448,-0.0484 -1.97199,-0.27244 -3.74998,-0.49782 -1.77802,-0.22539 -3.93102,-0.52126 -4.78447,-0.65749 -0.85344,-0.13623 -2.2042,-0.30817 -3.00164,-0.3821 -0.79748,-0.0739 -2.07764,-0.26376 -2.84481,-0.42187 -0.76721,-0.1581 -2.26774,-0.37967 -3.33454,-0.49237 -1.06682,-0.11271 -3.10343,-0.38449 -4.52584,-0.60397 -5.90985,-0.91189 -10.2642,-1.2602 -18.36199,-1.4688 -4.69395,-0.12092 -10.6218,-0.40945 -13.173,-0.64118 -4.87116,-0.44246 -7.85908,-0.35024 -9.42315,0.29083 -1.32275,0.54216 -2.15312,0.43615 -3.48288,-0.44463 -2.53439,-1.67871 -3.43881,-3.55972 -3.21508,-6.68671 0.0966,-1.34954 0.36323,-2.28744 1.07882,-3.79424 0.52278,-1.10086 1.48034,-3.63859 2.12786,-5.6394 0.64754,-2.00081 1.81787,-5.49989 2.6007,-7.77575 1.45716,-4.23611 3.6862,-11.13686 4.34396,-13.44821 0.2024,-0.71121 0.56292,-1.99137 0.80118,-2.84482 0.44785,-1.60429 0.72418,-2.49498 3.61062,-11.63788 0.94299,-2.98705 1.87874,-5.95471 2.07943,-6.5948 0.20068,-0.64008 0.65635,-2.29848 1.01254,-3.68532 0.73326,-2.8548 1.87564,-7.17937 2.20323,-8.34048 0.12042,-0.42673 0.46508,-1.82327 0.76597,-3.10344 0.30089,-1.28017 0.6581,-2.52966 0.7938,-2.77665 0.13568,-0.24699 0.24672,-0.67047 0.24672,-0.94105 0,-0.48633 1.2104,-4.54822 2.47576,-8.30811 0.35904,-1.0668 0.9302,-2.81249 1.2693,-3.87929 0.33908,-1.06681 0.86836,-2.57973 1.1762,-3.36206 0.30784,-0.78232 0.6493,-1.82972 0.75877,-2.32758 0.23342,-1.06141 3.30289,-10.2135 3.63204,-10.82939 0.12357,-0.23131 0.53602,-1.27208 0.91654,-2.31283 1.28849,-3.52426 2.34717,-5.40519 3.52085,-6.25538 1.44914,-1.04975 1.72458,-1.09651 4.76855,-0.8095 4.33912,0.40916 6.34129,1.64072 7.204,4.43131 0.42594,1.37782 1.82751,4.55979 2.9048,6.5948 0.15062,0.28448 0.53414,1.04095 0.85233,1.68103 1.21435,2.44298 2.81504,5.34916 3.27627,5.94825 0.16423,0.21337 0.66291,1.0862 1.10813,1.93964 0.44524,0.85345 1.40178,2.48276 2.12571,3.62068 0.72391,1.13793 1.6934,2.76723 2.15441,3.62068 0.46102,0.85344 1.2974,2.30817 1.85858,3.23274 0.56121,0.92456 1.22546,2.08835 1.47612,2.5862 0.25067,0.49784 0.59273,1.13792 0.76015,1.4224 1.58402,2.69163 3.01991,5.26781 3.01991,5.41819 0,0.10142 0.39354,0.85589 0.87455,1.67659 0.48099,0.8207 1.02809,1.91679 1.21574,2.43575 0.18766,0.51896 0.43419,0.94356 0.54786,0.94356 0.11367,0 0.20667,0.14686 0.20667,0.32634 0,0.17949 0.82723,1.95427 1.83831,3.94395 1.01108,1.98969 2.22154,4.37407 2.68991,5.29864 0.46835,0.92456 1.97639,4.0086 3.35121,6.85342 1.3748,2.84481 2.61092,5.37864 2.74689,5.63071 0.136,0.25209 0.49289,1.12493 0.79312,1.93965 0.3002,0.81473 0.63113,1.5977 0.73539,1.73994 0.10425,0.14224 0.63434,1.30355 1.17798,2.58069 1.23906,2.91072 3.44876,7.18659 5.55455,10.74813 1.9749,3.34012 5.51861,10.83143 6.87471,14.53289 0.35086,0.95763 1.06471,2.52875 1.58632,3.49137 l 0.94843,1.75022 -0.0725,3.84727 c -0.0399,2.116 -0.18036,4.13111 -0.31226,4.47803 -0.1319,0.34691 -0.23982,1.03688 -0.23982,1.53327 0,1.30246 -0.85409,2.98481 -2.0312,4.00102 -2.18714,1.88816 -4.41551,3.26246 -6.21855,3.83522 -0.96847,0.30764 -1.1494,0.31163 -2.09502,0.0462 z m -3.02275,-12.41657 c 0.41762,-0.41763 -1.17326,-6.37877 -2.19955,-8.24179 -0.25702,-0.46661 -0.46733,-0.98698 -0.46733,-1.15637 0,-0.29426 -3.03154,-6.42964 -4.24867,-8.59866 -0.31926,-0.56896 -1.08043,-1.9655 -1.69149,-3.10343 -0.61107,-1.13793 -1.40524,-2.59266 -1.76484,-3.23274 -1.3146,-2.33995 -2.54623,-4.82124 -3.14508,-6.33618 -0.33737,-0.85345 -1.00177,-2.38429 -1.47645,-3.40189 -0.4747,-1.01758 -0.86307,-1.9305 -0.86307,-2.0287 0,-0.0982 -1.9989,-4.21172 -4.44201,-9.14116 -2.4431,-4.92945 -4.45976,-9.02082 -4.48148,-9.09194 -0.081,-0.26533 -4.34249,-8.72271 -5.14736,-10.21547 -2.13797,-3.96521 -2.83945,-5.20224 -3.16455,-5.58069 -0.19291,-0.22456 -0.35073,-0.53629 -0.35073,-0.69273 0,-0.15644 -0.14549,-0.44305 -0.32327,-0.63691 -0.30755,-0.33531 -0.58742,-0.84526 -2.7009,-4.92152 -0.49781,-0.96012 -1.01025,-1.74568 -1.13873,-1.74568 -0.12851,0 -0.23363,-0.12276 -0.23363,-0.27281 0,-0.15005 -0.46551,-0.95831 -1.03448,-1.79615 -0.56896,-0.83783 -1.03448,-1.59603 -1.03448,-1.68489 0,-0.0889 -0.32004,-0.64996 -0.7112,-1.2469 -1.09539,-1.67161 -1.30404,-2.01895 -2.00635,-3.33973 -0.35927,-0.67564 -0.80255,-1.22844 -0.98505,-1.22844 -0.49425,0 -0.95255,0.55096 -0.95255,1.1451 0,0.28843 -0.39006,1.51622 -0.86679,2.72844 -1.43726,3.65445 -4.61437,14.20934 -5.84025,19.40222 -0.45331,1.92025 -0.93355,3.69344 -1.06721,3.94043 -0.13361,0.247 -0.24295,0.6648 -0.24295,0.92846 0,0.80387 -1.91933,7.8427 -3.19747,11.72634 -2.81956,8.56699 -4.18436,13.04774 -5.34343,17.54255 -0.45851,1.77801 -1.15856,4.16377 -1.55569,5.3017 -0.39714,1.13792 -1.4342,4.28015 -2.30459,6.98272 -0.87041,2.70258 -1.68711,5.14653 -1.81493,5.43101 -0.12782,0.28449 -0.35239,0.92457 -0.499,1.42241 -0.1466,0.49784 -0.44526,1.4787 -0.66363,2.17969 -0.5261,1.68868 -0.50123,2.1429 0.13593,2.4839 0.86288,0.46179 8.19435,1.14633 15.02391,1.40277 5.12824,0.19257 11.60964,0.78128 15.60676,1.41758 4.82108,0.76747 8.54773,1.25411 14.99993,1.95875 3.27154,0.35728 6.18525,0.7024 6.47493,0.76692 0.77141,0.17182 7.17673,0.90918 9.43018,1.08556 1.06679,0.0835 1.97163,0.17828 2.01075,0.21063 0.21488,0.17768 4.06279,-0.14838 4.2768,-0.3624 z"
         style="fill:#000000"
         sodipodi:nodetypes="csssccccccscscccscccccsccccscccsssccscccccccscscsccccsccccsssscccssssscsccsccsccccccccscsccccccccccscssccscccscccsscscsssscccccscsscssssssssssccsccscccssccccscsccsscccccsccsccccssscccsccccccccccccccsscccsccssccccsscsssssscsssssscssccscccsscssscssssssccsssccssccssccsccsccsccccsccccccsccscccsscsscscscccsssscccscsccscsccccccssccscccscccscsccsssccccccscscsccssccscccsccscccscccsccsccscsccccccccsccccsccccccccsccccccscccsccccccssccssccscccccccscsccsccccsccccccssccccsccccscsccccccccccscccccscccccccsccccsccccscsscsssccssccccccsccccscsscsssscccsccscccccsccssscccccccccccscccsccccssssscccscscsssscscssscccssscsssssssccsscsssssscscccscssccscscsscsccsssscsccccssccccscccscccsccscccsscsscscccssccsscccccccccccccccscccccccccccccccccscscsccccccccscccsssccccsccsscccscsssssccscscccscsssssccccssccssssssccscscssccscsccscccsssccccccccssccssscsccccsccccssssccscssssscsscscscssssssssscscssssscccsssssscs" />
    </g>
  </g>
</svg>
